<svg xmlns="http://www.w3.org/2000/svg" width="512" height="512" viewBox="0 0 512 512" version="1.1"><path d="M 248.500 2.864 C 244.898 4.503, 238.711 12.957, 186.250 87.928 L 128 171.171 128.004 176.836 C 128.008 183.635, 130.171 187.707, 135.540 191.025 L 139.287 193.340 255.893 193.096 C 384.418 192.828, 376.557 193.233, 381.270 186.627 C 383.027 184.163, 383.500 182.122, 383.500 177 L 383.500 170.500 328.557 92 C 298.338 48.825, 272.238 11.598, 270.557 9.273 C 265.051 1.660, 256.565 -0.806, 248.500 2.864 M 267.250 448.747 L 256 449.066 256 480.624 L 256 512.183 270.750 511.832 C 284.406 511.507, 285.834 511.291, 290 508.915 C 295.151 505.978, 301.553 498.142, 303.002 493 C 303.545 491.075, 303.991 480.163, 303.994 468.750 L 304 448 291.250 448.214 C 284.238 448.331, 273.438 448.571, 267.250 448.747" stroke="none" fill="#61a772" fill-rule="evenodd"/><path d="M 146.836 218.250 C 136.247 232.137, 118.805 254.975, 108.076 269 C 97.347 283.025, 87.765 296.058, 86.784 297.961 C 82.637 306.008, 86.523 316.569, 95 320.289 C 96.408 320.907, 106.923 321.629, 119.076 321.943 L 140.653 322.500 103.360 373.461 C 82.850 401.489, 65.545 425.684, 64.906 427.227 C 63.358 430.965, 64.309 438.593, 66.732 441.864 C 67.806 443.314, 70.172 445.512, 71.990 446.750 L 75.296 449 141.595 449 L 207.894 449 208.197 471.250 C 208.534 496.008, 208.882 497.549, 215.667 504.333 C 221.970 510.636, 224.793 511.463, 241.250 511.822 L 256 512.144 256 480.729 L 256 449.314 272.660 448.657 C 281.823 448.296, 321.708 448, 361.294 448 C 413.450 448, 434.346 447.677, 437.182 446.827 C 444.877 444.522, 450.183 434.942, 448.025 427.250 C 447.362 424.887, 432.906 404.636, 408.942 372.500 L 370.911 321.500 393.705 321 C 409.040 320.664, 417.201 320.098, 418.642 319.273 C 424.589 315.865, 427.880 308.503, 426.572 301.530 C 426.105 299.042, 414.612 283.210, 385.919 245.530 L 345.917 193 256.003 193 L 166.089 193 146.836 218.250" stroke="none" fill="#409040" fill-rule="evenodd"/></svg>